<svg width="100px" height="100px" viewBox="-7.68 -7.68 47.36 47.36" version="1.1" xmlns="http://www.w3.org/2000/svg" xmlns:xlink="http://www.w3.org/1999/xlink" xmlns:sketch="http://www.bohemiancoding.com/sketch/ns" fill="#000000" stroke="#000000" transform="matrix(-1, 0, 0, 1, 0, 0)rotate(0)"><g id="SVGRepo_bgCarrier" stroke-width="0"><path transform="translate(-7.68, -7.68), scale(2.96)" fill="#11a9c8" d="M9.166.33a2.25 2.25 0 00-2.332 0l-5.25 3.182A2.25 2.25 0 00.5 5.436v5.128a2.25 2.25 0 001.084 1.924l5.25 3.182a2.25 2.25 0 002.332 0l5.25-3.182a2.25 2.25 0 001.084-1.924V5.436a2.25 2.25 0 00-1.084-1.924L9.166.33z" strokewidth="0"></path></g><g id="SVGRepo_tracerCarrier" stroke-linecap="round" stroke-linejoin="round" stroke="#CCCCCC" stroke-width="0.064"></g><g id="SVGRepo_iconCarrier"> <title>book-album</title> <desc>Created with Sketch Beta.</desc> <defs> </defs> <g id="Page-1" stroke-width="0.00032" fill="none" fill-rule="evenodd" sketch:type="MSPage"> <g id="Icon-Set-Filled" sketch:type="MSLayerGroup" transform="translate(-414.000000, -101.000000)" fill="#d2f7fb"> <path d="M418,101 C415.791,101 414,102.791 414,105 L414,126 C414,128.209 415.885,129.313 418,130 L429,133 L429,104 C423.988,102.656 418,101 418,101 L418,101 Z M442,101 C442,101 436.212,102.594 430.951,104 L431,104 L431,133 C436.617,131.501 442,130 442,130 C444.053,129.469 446,128.209 446,126 L446,105 C446,102.791 444.209,101 442,101 L442,101 Z" id="book-album" sketch:type="MSShapeGroup"> </path> </g> </g> </g></svg>